<?xml version="1.0" standalone="no"?>
<!DOCTYPE svg PUBLIC "-//W3C//DTD SVG 20010904//EN"
 "http://www.w3.org/TR/2001/REC-SVG-20010904/DTD/svg10.dtd">
<svg version="1.0" xmlns="http://www.w3.org/2000/svg"
 width="200.000000pt" height="200.000000pt" viewBox="0 0 200.000000 200.000000"
 preserveAspectRatio="xMidYMid meet">
<metadata>
Created by potrace 1.15, written by Peter Selinger 2001-2017
</metadata>
<g transform="translate(0.000000,200.000000) scale(0.100000,-0.100000)"
fill="#000000" stroke="none">
<path d="M1345 1875 c-53 -32 -84 -81 -91 -142 l-6 -49 41 -19 c23 -10 58 -36
77 -58 107 -117 106 -286 -1 -390 -21 -20 -34 -37 -28 -37 5 0 64 29 131 65
66 36 122 65 124 65 6 0 41 -70 37 -73 -2 -2 -71 -39 -152 -83 l-149 -79 8
-30 c5 -16 8 -55 8 -85 1 -49 -9 -76 -92 -249 -51 -107 -104 -209 -117 -227
-30 -39 -30 -44 -5 -94 11 -22 20 -42 20 -44 0 -7 -56 -36 -68 -36 -5 0 -17
18 -27 40 -10 22 -18 40 -19 40 -1 0 -25 -9 -54 -20 -81 -31 -181 -28 -259 9
-34 16 -80 48 -103 71 -39 39 -90 128 -90 158 0 18 -2 17 -86 -38 -88 -58
-108 -64 -169 -57 -52 5 -62 -9 -50 -71 10 -56 31 -89 123 -197 131 -155 96
-145 490 -145 314 0 335 1 372 20 22 11 51 37 64 58 14 20 137 276 275 568
228 483 251 536 251 584 0 43 -16 90 -87 263 -114 275 -142 307 -270 307 -44
0 -68 -6 -98 -25z"/>
<path d="M1089 1625 c-53 -17 -113 -71 -134 -122 -21 -49 -19 -139 4 -188 34
-76 114 -125 201 -125 128 0 222 94 222 221 0 107 -57 184 -158 215 -57 17
-75 17 -135 -1z"/>
<path d="M629 1401 c-45 -46 -40 -80 36 -225 36 -68 72 -129 79 -135 7 -6 39
-19 72 -29 60 -19 63 -22 48 -71 -8 -27 -30 -37 189 81 82 44 146 82 144 84
-4 4 -194 62 -279 85 -34 9 -42 18 -85 102 -60 117 -80 137 -133 137 -33 0
-48 -6 -71 -29z"/>
<path d="M1095 949 c-93 -51 -172 -93 -174 -95 -2 -2 32 -80 75 -175 94 -203
73 -209 200 56 90 186 109 253 82 287 -12 16 -26 11 -183 -73z"/>
<path d="M532 950 c-41 -17 -301 -200 -317 -223 -44 -63 5 -157 82 -157 31 0
59 14 150 74 l111 75 26 -82 c29 -94 72 -152 143 -193 59 -35 159 -44 232 -19
28 9 51 18 51 20 0 1 -42 94 -94 205 l-94 203 -27 -54 -28 -53 -43 87 c-24 47
-55 94 -69 103 -30 20 -92 27 -123 14z"/>
</g>
</svg>
