<svg xmlns="http://www.w3.org/2000/svg" viewBox="0 0 1684 1191" width="1684" height="1191">
	<defs>
		<clipPath clipPathUnits="userSpaceOnUse" id="cp1">
			<path d="M0 0L1684 0L1684 1191L0 1191Z" />
		</clipPath>
	</defs>
	<style>
		tspan { white-space:pre }
		.shp0 { fill: #ff0000 } 
	</style>
	<g id="Page 1" clip-path="url(#cp1)">
		<path id="Path 1" fill-rule="evenodd" class="shp0" d="M1632.38 198.85L1632.38 198.91L1531.15 816.12L1357.19 815.56L1182.87 814.99L1034.76 651.25C1034.76 651.25 1285.85 522.25 1147.58 489.28C1127.91 486.95 1095.35 481.02 1021.16 485.79C1019.08 487.87 960.7 813.83 960.7 813.83L882.44 812.99L958.67 414.63C958.67 414.63 1230.59 374.72 1266.17 491.01C1271.81 515.31 1289.04 577.92 1156.26 666.87C1159.3 670.78 1228.46 741.94 1228.46 741.94L1394.81 742.46L1458.82 742.66L1547.92 259.59L1473.93 259.52L1453.86 259.5L1464.61 199.43L1632.38 198.85ZM900.4 414.52L823.68 810.34L744.59 811.02C744.59 811.02 801.17 503.58 801.63 500.8C558.16 516.1 541.93 812.34 541.93 812.34C541.93 812.34 413.71 813.65 331.64 813.61C293.03 813.6 264.61 813.29 264.61 812.41C-99.87 801.29 126.68 504.66 132.24 499.1C167.42 450.77 211.1 409.97 260.88 375.55C464.86 234.5 771.78 200.86 1020.88 197.11C1173.48 194.81 1300.52 196.18 1357.6 197.08C1378.45 197.41 1389.97 197.68 1389.97 197.68L1381.08 239.87L1376.68 260.74C1376.68 260.74 983.85 264.22 971.36 267.05C504.03 267.1 283.97 459.94 246.74 493.2C242.74 496.77 240.82 498.53 240.96 497.99C19.76 731.7 274.75 732.75 274.75 732.75C274.75 732.75 277.27 732.91 291.2 733.03C313.17 733.21 363.48 733.26 477.05 732.25C546.63 412.98 833.28 418.1 833.28 418.1L852.37 416.8L900.4 414.52ZM100.81 1011.99L136.1 860.91L212.16 860.91C226.26 860.91 236.77 862.14 243.61 864.64C250.5 867.1 255.45 871.67 258.45 878.39C261.46 885.08 261.82 893.24 259.58 902.84C257.62 911.25 254.18 918.46 249.29 924.54C244.36 930.63 238.39 935.55 231.42 939.35C226.94 941.74 221.14 943.75 214.01 945.3C219 947.16 222.52 949.03 224.6 950.89C225.96 952.12 227.78 954.76 230.04 958.81C232.28 962.89 233.69 965.98 234.24 968.2L246.09 1011.99L194.51 1011.99L180.92 965.81C179.21 959.86 177.37 955.96 175.35 954.16C172.62 951.84 169.15 950.68 164.99 950.68L160.96 950.68L146.64 1011.99L100.81 1011.99ZM167.64 922.12L186.89 922.12C188.95 922.12 193.13 921.45 199.44 920.08C202.61 919.44 205.46 917.86 207.97 915.33C210.46 912.79 212.1 909.88 212.87 906.57C214.02 901.68 213.37 897.95 210.96 895.35C208.55 892.71 203.18 891.41 194.86 891.41L174.81 891.41L167.64 922.12ZM295.89 860.91L418.16 860.91L410.63 893.17L334.09 893.17L328.47 917.19L399.48 917.19L392.28 948.01L321.27 948.01L314.32 977.77L393.1 977.77L385.11 1011.99L260.6 1011.99L295.89 860.91ZM445.26 860.91L487.9 860.91L523.97 944.49L543.5 860.91L586.51 860.91L551.22 1011.99L508.21 1011.99L472.26 929.05L452.88 1011.99L409.97 1011.99L445.26 860.91ZM606.46 860.91L745.17 860.91L736.45 898.23L689.89 898.23L663.32 1011.99L617.69 1011.99L644.26 898.23L597.74 898.23L606.46 860.91ZM896.02 987.05L844.03 987.05L831.05 1011.99L784.43 1011.99L875.22 860.91L924.97 860.91L945.21 1011.99L897.45 1011.99L896.02 987.05ZM894.1 954.37L890.45 900.06L861.53 954.37L894.1 954.37ZM1141.36 950.26L1178.46 962.64C1173.1 974.11 1166.63 983.67 1159.06 991.38C1151.48 999.08 1142.94 1004.89 1133.47 1008.79C1123.98 1012.73 1112.63 1014.67 1099.43 1014.67C1083.37 1014.67 1070.79 1012.27 1061.76 1007.52C1052.7 1002.74 1045.86 994.33 1041.28 982.3C1036.73 970.27 1036.6 954.9 1040.98 936.15C1046.83 911.14 1057.82 891.9 1073.95 878.5C1090.08 865.06 1110.05 858.34 1133.81 858.34C1152.41 858.34 1166.13 862.18 1174.99 869.88C1183.85 877.58 1189 889.4 1190.44 905.34L1147.99 914.52C1147.66 909.91 1146.97 906.53 1145.92 904.39C1144.21 900.84 1141.72 898.09 1138.49 896.16C1135.23 894.22 1131.33 893.27 1126.75 893.27C1116.44 893.27 1107.5 897.53 1100.01 906.04C1094.37 912.37 1089.95 922.29 1086.79 935.84C1082.87 952.61 1082.7 964.08 1086.2 970.31C1089.73 976.53 1095.99 979.63 1104.96 979.63C1113.7 979.63 1120.88 977.13 1126.53 972.1C1132.16 967.11 1137.1 959.83 1141.36 950.26ZM1285.78 987.05L1233.79 987.05L1220.81 1011.99L1174.19 1011.99L1264.98 860.91L1314.73 860.91L1334.97 1011.99L1287.21 1011.99L1285.78 987.05ZM1283.86 954.37L1280.21 900.06L1251.29 954.37L1283.86 954.37ZM1350.17 1011.99L1385.46 860.91L1461.53 860.91C1475.62 860.91 1486.13 862.14 1492.98 864.64C1499.86 867.1 1504.81 871.67 1507.82 878.39C1510.83 885.08 1511.19 893.24 1508.95 902.84C1506.98 911.25 1503.55 918.46 1498.65 924.54C1493.72 930.63 1487.76 935.55 1480.79 939.35C1476.31 941.74 1470.51 943.75 1463.37 945.3C1468.37 947.16 1471.89 949.03 1473.96 950.89C1475.33 952.12 1477.15 954.76 1479.41 958.81C1481.65 962.89 1483.06 965.98 1483.61 968.2L1495.45 1011.99L1443.87 1011.99L1430.28 965.81C1428.58 959.86 1426.74 955.96 1424.72 954.16C1421.99 951.84 1418.51 950.68 1414.35 950.68L1410.33 950.68L1396.01 1011.99L1350.17 1011.99ZM1417 922.12L1436.26 922.12C1438.32 922.12 1442.5 921.45 1448.81 920.08C1451.98 919.44 1454.82 917.86 1457.34 915.33C1459.82 912.79 1461.47 909.88 1462.24 906.57C1463.38 901.68 1462.74 897.95 1460.32 895.35C1457.91 892.71 1452.54 891.41 1444.22 891.41L1424.18 891.41L1417 922.12Z" />
	</g>
</svg>