<svg xmlns="http://www.w3.org/2000/svg" viewBox="0 0 1684 1191" width="1684" height="1191">
	<defs>
		<clipPath clipPathUnits="userSpaceOnUse" id="cp1">
			<path d="M0 0L1684 0L1684 1191L0 1191L0 0Z" />
		</clipPath>
	</defs>
	<style>
		tspan { white-space:pre }
		.shp0 { fill: #ff0000 } 
	</style>
	<g id="Clip-Path: Page 1" clip-path="url(#cp1)">
		<g id="Page 1">
			<path id="Path 1" fill-rule="evenodd" class="shp0" d="M1464.61 285.43L1453.86 345.5L1473.93 345.52L1547.92 345.59L1458.82 828.66L1394.81 828.46L1228.46 827.94C1228.46 827.94 1159.3 756.78 1156.26 752.87C1289.04 663.92 1271.81 601.31 1266.17 577.01C1230.59 460.72 958.67 500.63 958.67 500.63L882.44 898.99L960.7 899.83C960.7 899.83 1019.08 573.87 1021.16 571.79C1095.35 567.02 1127.91 572.95 1147.58 575.28C1285.85 608.25 1034.76 737.25 1034.76 737.25L1182.87 900.99L1357.19 901.56L1531.15 902.12L1632.38 284.91L1632.38 284.85L1464.61 285.43ZM852.75 504.95L833.66 506.25C833.66 506.25 547.01 501.13 477.43 820.4C363.86 821.41 313.55 821.36 291.58 821.18C277.65 821.06 275.13 820.9 275.13 820.9C275.13 820.9 20.14 819.85 241.34 586.14C241.2 586.68 243.12 584.92 247.12 581.35C284.35 548.09 504.41 355.25 971.74 355.2C984.23 352.37 1377.06 348.89 1377.06 348.89L1381.46 328.02L1390.35 285.83C1390.35 285.83 1378.83 285.56 1357.98 285.23C1300.9 284.33 1173.86 282.96 1021.26 285.26C772.16 289.01 465.24 322.65 261.26 463.7C211.48 498.12 167.8 538.92 132.62 587.25C127.06 592.81 -99.49 889.44 264.99 900.56C264.99 901.44 293.41 901.75 332.02 901.76C414.09 901.8 542.31 900.49 542.31 900.49C542.31 900.49 558.54 604.25 802.01 588.95C801.55 591.73 744.97 899.17 744.97 899.17L824.06 898.49L900.78 502.67L852.75 504.95Z" />
		</g>
	</g>
</svg>